<svg width="20" height="20" viewBox="0 0 100 100" fill="none" xmlns="http://www.w3.org/2000/svg">
<g clip-path="url(#clip0_1_9)">
<rect width="100" height="100" />
<g clip-path="url(#clip1_1_9)">
<path d="M49.998 100C36.6448 100 24.0876 94.798 14.6428 85.3572C5.20199 75.9085 0 63.3552 0 49.998C0 36.6408 5.20199 24.0876 14.6428 14.6428C24.0876 5.20199 36.6448 0 49.998 0C63.3512 0 75.9084 5.20199 85.3532 14.6428C94.798 24.0876 99.996 36.6408 99.996 49.998C99.996 63.3552 94.794 75.9085 85.3532 85.3532C75.9084 94.798 63.3552 99.996 49.998 99.996V100ZM49.998 7.00896C38.5154 7.00896 27.7174 11.4826 19.598 19.602C2.83383 36.3662 2.83383 63.6418 19.598 80.402C27.7174 88.5214 38.5154 92.995 49.998 92.995C61.4806 92.995 72.2786 88.5214 80.398 80.402C97.1622 63.6378 97.1622 36.3622 80.398 19.602C72.2786 11.4826 61.4806 7.00896 49.998 7.00896ZM26.9333 63.3393C20.8915 52.8995 22.6189 39.6617 31.1403 31.1443C39.6617 22.6269 52.8995 20.8995 63.3353 26.9373L65.0905 23.9045C53.2816 17.0667 38.3005 19.0209 28.6607 28.6647C19.0209 38.3045 17.0627 53.2856 23.9005 65.0945L26.9333 63.3393ZM71.3353 71.3353C80.9751 61.6955 82.9333 46.7144 76.0955 34.9055L73.0627 36.6607C79.1045 47.0965 77.3771 60.3383 68.8557 68.8557C60.3383 77.3731 47.1005 79.1045 36.6607 73.0627L34.9055 76.0955C39.6139 78.8219 44.8279 80.1512 50.006 80.1512C57.8109 80.1512 65.5403 77.1304 71.3353 71.3393V71.3353Z" fill="#1B7AFF"/>
<path d="M77.6995 22.3005L44.1194 44.1194L22.3005 77.6995L55.8806 55.8806L77.6995 22.3005ZM46.2846 53.7154C44.2348 51.6657 44.2348 48.3383 46.2846 46.2846C48.3343 44.2348 51.6617 44.2348 53.7154 46.2846C55.7692 48.3343 55.7652 51.6617 53.7154 53.7154C51.6657 55.7652 48.3383 55.7652 46.2846 53.7154Z" fill="#FC4500"/>
</g>
</g>
<defs>
<clipPath id="clip0_1_9">
<rect width="100" height="100" fill="white"/>
</clipPath>
<clipPath id="clip1_1_9">
<rect width="100" height="100" fill="white"/>
</clipPath>
</defs>
</svg>
